<svg xmlns="http://www.w3.org/2000/svg" xmlns:xlink="http://www.w3.org/1999/xlink" contentStyleType="text/css" data-diagram-type="CLASS" height="866px" preserveAspectRatio="none" style="width:407px;height:866px;background:#FFFFFF;" version="1.1" viewBox="0 0 407 866" width="407px" zoomAndPan="magnify"><defs/><g><!--cluster domain1--><g class="cluster" data-entity="domain1" data-source-line="8" data-uid="ent0006" id="cluster_domain1"><path d="M8.5,6.602 L262.129,6.602 A3.75,3.75 0 0 1 264.629,9.102 L271.629,31.6699 L396.5,31.6699 A2.5,2.5 0 0 1 399,34.1699 L399,857.392 A2.5,2.5 0 0 1 396.5,859.892 L8.5,859.892 A2.5,2.5 0 0 1 6,857.392 L6,9.102 A2.5,2.5 0 0 1 8.5,6.602" fill="none" style="stroke:#000000;stroke-width:1.5;"/><line style="stroke:#000000;stroke-width:1.5;" x1="6" x2="271.629" y1="31.6699" y2="31.6699"/><text fill="#000000" font-family="sans-serif" font-size="14" font-weight="bold" lengthAdjust="spacing" textLength="252.629" x="10" y="23.5679">de.raphaelbudde.jpa2puml.domain1</text></g><!--class AbstractEntity--><g class="entity" data-entity="AbstractEntity" data-source-line="8" data-uid="ent0002" id="entity_AbstractEntity"><rect fill="#F1F1F1" height="97.2038" rx="2.5" ry="2.5" style="stroke:#181818;stroke-width:0.5;" width="188.2453" x="149.88" y="64.602"/><ellipse cx="196.7868" cy="80.602" fill="#A9DCDF" rx="11" ry="11" style="stroke:#181818;stroke-width:1;"/><path d="M191.9587,86.352 L195.3025,74.1645 L198.4431,74.1645 L201.8181,86.352 L199.3493,86.352 L198.615,83.3364 L195.0993,83.3364 L194.3493,86.352 L191.9587,86.352 Z M196.365,78.3051 L195.615,81.3051 L198.1306,81.3051 L197.4118,78.3051 Q197.2712,77.727 197.1462,77.1801 Q197.0212,76.6176 196.8806,76.0395 Q196.7712,76.6176 196.6306,77.1801 Q196.49,77.727 196.365,78.3051 Z " fill="#000000"/><text fill="#000000" font-family="sans-serif" font-size="14" font-style="italic" lengthAdjust="spacing" textLength="85.9317" x="217.2868" y="86.034">AbstractEntity</text><line style="stroke:#181818;stroke-width:0.5;" x1="150.88" x2="337.1253" y1="96.602" y2="96.602"/><text fill="#000000" font-family="sans-serif" font-size="14" lengthAdjust="spacing" textLength="90.0757" x="155.88" y="115.5679">id: UUID &#171;PK&#187;</text><text fill="#000000" font-family="sans-serif" font-size="14" lengthAdjust="spacing" textLength="94.7656" x="155.88" y="134.6358">version: Long?</text><text fill="#000000" font-family="sans-serif" font-size="14" lengthAdjust="spacing" textLength="176.2453" x="155.88" y="153.7038">createdAt: ZonedDateTime</text></g><polygon fill="none" points="229.4199,161.8057,230.3768,182.9737,216.9674,178.9503" style="stroke:#181818;stroke-width:1;"/><line style="stroke:#181818;stroke-width:1;" x1="223.6721" x2="223" y1="180.962" y2="183.202"/><line style="stroke:#181818;stroke-width:1;" x1="253.3381" x2="257.25" y1="161.8057" y2="182.172"/><!--class Address--><g class="entity" data-entity="Address" data-source-line="14" data-uid="ent0007" id="entity_Address"><rect fill="#F1F1F1" height="116.2717" rx="2.5" ry="2.5" style="stroke:#181818;stroke-width:0.5;" width="99.7097" x="22.15" y="417.932"/><ellipse cx="43.6542" cy="433.932" fill="#ADD1B2" rx="11" ry="11" style="stroke:#181818;stroke-width:1;"/><path d="M40.0136,440.432 L40.0136,428.2914 L47.6699,428.2914 L47.6699,430.4164 L42.3886,430.4164 L42.3886,433.0726 L47.4042,433.0726 L47.4042,435.1976 L42.3886,435.1976 L42.3886,438.307 L47.6699,438.307 L47.6699,440.432 L40.0136,440.432 Z " fill="#000000"/><text fill="#000000" font-family="sans-serif" font-size="14" lengthAdjust="spacing" textLength="53.2558" x="59.0996" y="439.364">Address</text><line style="stroke:#181818;stroke-width:0.5;" x1="23.15" x2="120.8597" y1="449.932" y2="449.932"/><text fill="#000000" font-family="sans-serif" font-size="14" lengthAdjust="spacing" textLength="87.7097" x="28.15" y="468.8979">id: Long &#171;PK&#187;</text><text fill="#000000" font-family="sans-serif" font-size="14" lengthAdjust="spacing" textLength="84.2797" x="28.15" y="487.9658">name: String</text><text fill="#000000" font-family="sans-serif" font-size="14" lengthAdjust="spacing" textLength="85.1757" x="28.15" y="507.0338">street: String</text><text fill="#000000" font-family="sans-serif" font-size="14" lengthAdjust="spacing" textLength="69.3137" x="28.15" y="526.1017">city: String</text></g><!--class GridOperator--><g class="entity" data-entity="GridOperator" data-source-line="21" data-uid="ent0008" id="entity_GridOperator"><rect fill="#F1F1F1" height="72.4799" rx="2.5" ry="2.5" style="stroke:#181818;stroke-width:0.5;" width="120.5777" x="21.71" y="263.632"/><ellipse cx="36.71" cy="286.338" fill="#ADD1B2" rx="11" ry="11" style="stroke:#181818;stroke-width:1;"/><path d="M33.0694,292.838 L33.0694,280.6974 L40.7256,280.6974 L40.7256,282.8224 L35.4444,282.8224 L35.4444,285.4786 L40.46,285.4786 L40.46,287.6036 L35.4444,287.6036 L35.4444,290.713 L40.7256,290.713 L40.7256,292.838 L33.0694,292.838 Z " fill="#000000"/><text fill="#000000" font-family="sans-serif" font-size="12" font-style="italic" lengthAdjust="spacing" textLength="85.1046" x="52.4465" y="281.4601">&#171;AbstractEntity&#187;</text><text fill="#000000" font-family="sans-serif" font-size="14" lengthAdjust="spacing" textLength="88.5777" x="50.71" y="299.942">GridOperator</text><line style="stroke:#181818;stroke-width:0.5;" x1="22.71" x2="141.2877" y1="309.044" y2="309.044"/><text fill="#000000" font-family="sans-serif" font-size="14" lengthAdjust="spacing" textLength="107.7716" x="27.71" y="328.0099">mastrNr: String?</text></g><!--class LineElement--><g class="entity" data-entity="LineElement" data-source-line="25" data-uid="ent0009" id="entity_LineElement"><rect fill="#F1F1F1" height="91.5479" rx="2.5" ry="2.5" style="stroke:#181818;stroke-width:0.5;" width="176.1773" x="57.91" y="613.212"/><ellipse cx="101.1239" cy="635.918" fill="#ADD1B2" rx="11" ry="11" style="stroke:#181818;stroke-width:1;"/><path d="M97.4833,642.418 L97.4833,630.2774 L105.1396,630.2774 L105.1396,632.4024 L99.8583,632.4024 L99.8583,635.0586 L104.8739,635.0586 L104.8739,637.1836 L99.8583,637.1836 L99.8583,640.293 L105.1396,640.293 L105.1396,642.418 L97.4833,642.418 Z " fill="#000000"/><text fill="#000000" font-family="sans-serif" font-size="12" font-style="italic" lengthAdjust="spacing" textLength="85.1046" x="119.5813" y="631.0401">&#171;AbstractEntity&#187;</text><text fill="#000000" font-family="sans-serif" font-size="14" lengthAdjust="spacing" textLength="81.4797" x="121.3937" y="649.522">LineElement</text><line style="stroke:#181818;stroke-width:0.5;" x1="58.91" x2="233.0873" y1="658.624" y2="658.624"/><text fill="#000000" font-family="sans-serif" font-size="14" lengthAdjust="spacing" textLength="155.0774" x="63.91" y="677.5899">type: LineElementType?</text><text fill="#000000" font-family="sans-serif" font-size="14" lengthAdjust="spacing" textLength="164.1773" x="63.91" y="696.6579">typeB: LineElementType?</text></g><!--class Text--><g class="entity" data-entity="Text" data-source-line="30" data-uid="ent0010" id="entity_Text"><rect fill="#F1F1F1" height="78.1358" rx="2.5" ry="2.5" style="stroke:#181818;stroke-width:0.5;" width="132.5116" x="213.74" y="260.802"/><ellipse cx="261.6758" cy="276.802" fill="#ADD1B2" rx="11" ry="11" style="stroke:#181818;stroke-width:1;"/><path d="M258.0352,283.302 L258.0352,271.1614 L265.6915,271.1614 L265.6915,273.2864 L260.4102,273.2864 L260.4102,275.9426 L265.4258,275.9426 L265.4258,278.0676 L260.4102,278.0676 L260.4102,281.177 L265.6915,281.177 L265.6915,283.302 L258.0352,283.302 Z " fill="#000000"/><text fill="#000000" font-family="sans-serif" font-size="14" lengthAdjust="spacing" textLength="28.1399" x="282.1758" y="282.234">Text</text><line style="stroke:#181818;stroke-width:0.5;" x1="214.74" x2="345.2516" y1="292.802" y2="292.802"/><text fill="#000000" font-family="sans-serif" font-size="14" lengthAdjust="spacing" textLength="84.2797" x="219.74" y="311.7679">name: String</text><text fill="#000000" font-family="sans-serif" font-size="14" lengthAdjust="spacing" textLength="120.5116" x="219.74" y="330.8358">description: String</text></g><!--class Transformer--><g class="entity" data-entity="Transformer" data-source-line="35" data-uid="ent0011" id="entity_Transformer"><rect fill="#F1F1F1" height="45.412" rx="2.5" ry="2.5" style="stroke:#181818;stroke-width:0.5;" width="114.6137" x="184.69" y="453.362"/><ellipse cx="199.69" cy="476.068" fill="#ADD1B2" rx="11" ry="11" style="stroke:#181818;stroke-width:1;"/><path d="M196.0494,482.568 L196.0494,470.4274 L203.7056,470.4274 L203.7056,472.5524 L198.4244,472.5524 L198.4244,475.2086 L203.44,475.2086 L203.44,477.3336 L198.4244,477.3336 L198.4244,480.443 L203.7056,480.443 L203.7056,482.568 L196.0494,482.568 Z " fill="#000000"/><text fill="#000000" font-family="sans-serif" font-size="12" font-style="italic" lengthAdjust="spacing" textLength="85.1046" x="212.4446" y="471.1901">&#171;AbstractEntity&#187;</text><text fill="#000000" font-family="sans-serif" font-size="14" lengthAdjust="spacing" textLength="82.6137" x="213.69" y="489.672">Transformer</text></g><!--class LineElementType--><g class="entity" data-entity="LineElementType" data-source-line="39" data-uid="ent0012" id="entity_LineElementType"><rect fill="#F1F1F1" height="78.1358" rx="2.5" ry="2.5" style="stroke:#181818;stroke-width:0.5;" width="144.9095" x="73.55" y="765.752"/><ellipse cx="88.55" cy="781.752" fill="#EB937F" rx="11" ry="11" style="stroke:#181818;stroke-width:1;"/><path d="M84.9094,788.252 L84.9094,776.1114 L92.5656,776.1114 L92.5656,778.2364 L87.2844,778.2364 L87.2844,780.8926 L92.3,780.8926 L92.3,783.0176 L87.2844,783.0176 L87.2844,786.127 L92.5656,786.127 L92.5656,788.252 L84.9094,788.252 Z " fill="#000000"/><text fill="#000000" font-family="sans-serif" font-size="14" lengthAdjust="spacing" textLength="112.9095" x="102.55" y="787.184">LineElementType</text><line style="stroke:#181818;stroke-width:0.5;" x1="74.55" x2="217.4595" y1="797.752" y2="797.752"/><text fill="#000000" font-family="sans-serif" font-size="14" lengthAdjust="spacing" textLength="39.9698" x="79.55" y="816.7179">TYPE1</text><text fill="#000000" font-family="sans-serif" font-size="14" lengthAdjust="spacing" textLength="39.9698" x="79.55" y="835.7858">TYPE2</text></g><!--link AbstractEntity to Text--><g class="link" data-entity-1="AbstractEntity" data-entity-2="Text" data-source-line="44" data-uid="lnk13" id="link_AbstractEntity_Text"><path codeLine="44" d="M257.25,182.172 C262.4,208.602 266.9723,232.0128 271.3823,254.6428" fill="none" id="AbstractEntity-to-Text" style="stroke:#181818;stroke-width:1;"/><polygon fill="#181818" points="272.53,260.532,274.7347,250.9331,271.5736,255.6243,266.8824,252.4633,272.53,260.532" style="stroke:#181818;stroke-width:1;"/><text fill="#000000" font-family="sans-serif" font-size="13" lengthAdjust="spacing" textLength="23.595" x="267.28" y="226.699">text</text><text fill="#000000" font-family="sans-serif" font-size="13" lengthAdjust="spacing" textLength="7.436" x="251.231" y="203.7295">1</text><text fill="#000000" font-family="sans-serif" font-size="13" lengthAdjust="spacing" textLength="7.436" x="263.6156" y="248.9707">1</text></g><!--link GridOperator to Address--><g class="link" data-entity-1="GridOperator" data-entity-2="Address" data-source-line="45" data-uid="lnk14" id="link_GridOperator_Address"><path codeLine="45" d="M64.32,336.442 C60.08,346.672 56.16,358.032 54,368.932 C50.88,384.702 50.8739,395.9386 53.5939,411.7686" fill="none" id="GridOperator-to-Address" style="stroke:#181818;stroke-width:1;"/><polygon fill="#181818" points="54.61,417.682,57.0281,408.1346,53.7633,412.7542,49.1437,409.4893,54.61,417.682" style="stroke:#181818;stroke-width:1;"/><text fill="#000000" font-family="sans-serif" font-size="13" lengthAdjust="spacing" textLength="48.438" x="55" y="383.829">address</text><text fill="#000000" font-family="sans-serif" font-size="13" lengthAdjust="spacing" textLength="21.84" x="38.549" y="358.1461">0..1</text><text fill="#000000" font-family="sans-serif" font-size="13" lengthAdjust="spacing" textLength="21.84" x="30.0898" y="406.0545">0..1</text></g><!--link GridOperator to Transformer--><g class="link" data-entity-1="GridOperator" data-entity-2="Transformer" data-source-line="46" data-uid="lnk15" id="link_GridOperator_Transformer"><path codeLine="46" d="M142.61,327.942 C182.83,346.032 228.52,366.892 230,368.932 C247.71,393.432 248.328,423.7919 246.008,446.9519" fill="none" id="GridOperator-to-Transformer" style="stroke:#181818;stroke-width:1;"/><polygon fill="#181818" points="245.41,452.922,250.2871,444.3655,245.9084,447.9469,242.327,443.5681,245.41,452.922" style="stroke:#181818;stroke-width:1;"/><text fill="#000000" font-family="sans-serif" font-size="13" lengthAdjust="spacing" textLength="80.4051" x="240.28" y="383.829">transformers</text><text fill="#000000" font-family="sans-serif" font-size="13" lengthAdjust="spacing" textLength="21.567" x="150.4188" y="327.0181">1..*</text><text fill="#000000" font-family="sans-serif" font-size="13" lengthAdjust="spacing" textLength="21.567" x="222.5816" y="441.409">0..*</text></g><!--link Transformer to GridOperator--><g class="link" data-entity-1="Transformer" data-entity-2="GridOperator" data-source-line="51" data-uid="lnk22" id="link_Transformer_GridOperator"><path codeLine="51" d="M211.94,452.992 C190.52,436.442 161.79,412.502 140,387.932 C126.02,372.172 115.9783,357.911 105.6983,341.451" fill="none" id="Transformer-to-GridOperator" style="stroke:#181818;stroke-width:1;"/><polygon fill="#181818" points="102.52,336.362,103.8948,346.1144,105.1686,340.6028,110.6802,341.8766,102.52,336.362" style="stroke:#181818;stroke-width:1;"/><text fill="#000000" font-family="sans-serif" font-size="13" lengthAdjust="spacing" textLength="80.7821" x="141" y="383.829">gridOperator</text><text fill="#000000" font-family="sans-serif" font-size="13" lengthAdjust="spacing" textLength="21.567" x="180.1165" y="441.4978">0..*</text><text fill="#000000" font-family="sans-serif" font-size="13" lengthAdjust="spacing" textLength="7.436" x="98.483" y="358.0523">1</text></g><!--reverse link AbstractEntity to GridOperator--><g class="link" data-entity-1="AbstractEntity" data-entity-2="GridOperator" data-source-line="47" data-uid="lnk17" id="link_AbstractEntity_GridOperator"><path codeLine="47" d="M223,183.202 C223,183.202 190.84,195.662 169,211.802 C148.72,226.792 128.65,246.452 112.91,263.312" fill="none" id="AbstractEntity-backto-GridOperator" style="stroke:#181818;stroke-width:1;"/></g><!--link LineElement to LineElement--><g class="link" data-entity-1="LineElement" data-entity-2="LineElement" data-source-line="48" data-uid="lnk18" id="link_LineElement_LineElement"><path codeLine="48" d="M234.52,645.032 C254.48,646.282 269.09,650.942 269.09,658.982 C269.09,667.022 260.4683,671.307 240.5083,672.557" fill="none" id="LineElement-to-LineElement" style="stroke:#181818;stroke-width:1;"/><polygon fill="#181818" points="234.52,672.932,243.7524,676.3616,239.5102,672.6195,243.2524,668.3773,234.52,672.932" style="stroke:#181818;stroke-width:1;"/><text fill="#000000" font-family="sans-serif" font-size="13" lengthAdjust="spacing" textLength="119.0281" x="275.09" y="664.379">relatedLineElement</text><text fill="#000000" font-family="sans-serif" font-size="13" lengthAdjust="spacing" textLength="21.567" x="242.123" y="640.2369">0..*</text><text fill="#000000" font-family="sans-serif" font-size="13" lengthAdjust="spacing" textLength="21.84" x="242.1335" y="670.273">0..1</text></g><!--reverse link AbstractEntity to LineElement--><g class="link" data-entity-1="AbstractEntity" data-entity-2="LineElement" data-source-line="49" data-uid="lnk20" id="link_AbstractEntity_LineElement"><path codeLine="49" d="M223,183.202 C223,183.202 332.09,196.782 364,260.802 C379.49,291.882 368.09,304.452 364,338.932 C350.51,452.662 367.59,507.132 282,583.212 C267.8,595.832 251.11,607.172 234.37,616.972" fill="none" id="AbstractEntity-backto-LineElement" style="stroke:#181818;stroke-width:1;"/></g><!--link LineElement to LineElementType--><g class="link" data-entity-1="LineElement" data-entity-2="LineElementType" data-source-line="50" data-uid="lnk21" id="link_LineElement_LineElementType"><path codeLine="50" d="M146,705.102 C146,724.542 146,747.042 146,765.642" fill="none" id="LineElement-LineElementType" style="stroke:#181818;stroke-width:1;stroke-dasharray:7,7;"/></g><!--link Transformer to LineElement--><g class="link" data-entity-1="Transformer" data-entity-2="LineElement" data-source-line="52" data-uid="lnk23" id="link_Transformer_LineElement"><path codeLine="52" d="M230.23,499.252 C215.31,527.372 192.0326,571.232 172.8326,607.412" fill="none" id="Transformer-to-LineElement" style="stroke:#181818;stroke-width:1;"/><polygon fill="#181818" points="170.02,612.712,177.7722,606.6371,172.3638,608.2954,170.7056,602.887,170.02,612.712" style="stroke:#181818;stroke-width:1;"/><text fill="#000000" font-family="sans-serif" font-size="13" lengthAdjust="spacing" textLength="78.4291" x="195" y="579.109">lineElements</text><text fill="#000000" font-family="sans-serif" font-size="13" lengthAdjust="spacing" textLength="7.436" x="219.75" y="520.5575">1</text><text fill="#000000" font-family="sans-serif" font-size="13" lengthAdjust="spacing" textLength="21.567" x="151.1339" y="601.2758">0..*</text></g><!--reverse link AbstractEntity to Transformer--><g class="link" data-entity-1="AbstractEntity" data-entity-2="Transformer" data-source-line="53" data-uid="lnk25" id="link_AbstractEntity_Transformer"><path codeLine="53" d="M223,183.202 C223,183.202 152.13,284.072 196,338.932 C233.84,386.262 291.16,321.612 329,368.932 C352.43,398.242 314.1,431.662 281.14,453.042" fill="none" id="AbstractEntity-backto-Transformer" style="stroke:#181818;stroke-width:1;"/></g><!--SRC=[lLN1Rjim3BthAxXS1XImCETe50uoDEY25Ms0k8VrfbgChTMI1KdULcpxzz5sqZZ3YaKxx2G_IdwFVAJijt2D1fq8AE6h2ZLyjc9kEzqaAP_pDDdUBZVR3tS5Os-i4vKMq7bScu1EerJqsaQKJw923plHU6IraWWQGzrAFmBKDZp3Jc534V-aZ1LEQAXSszcrgT6f84o9C6TCFFhWH1b08dV2rWARnquIE2J5PQk5CYbVxa-kJ534_fq1A9d1_Vtw2YulDn_pd29Vq7dLcWnkMbCjA50wx0jTXWmUMeFoYb2XDBAVZE78z7TbAHrw_oBPSnybZT2OmJOuPIg2b2HYc0HAqdY14QhNJiaxs_UfTQHsMdwU3zbeGS5RTw1VnF3VA8Eh1ZMTVuq-F5igRNAmeC1Yl_7-3piHyWL-2uF8R_v9zALJDWnTZ7UjSCBuNKkZ-eff8rcdempggnkIBJvjLkb-dVTKiMCxIsUG9FcmdkTH1e4M5ZSlitUS7vJ6nxEdF0CnFiLAffnV72KlPd7DeZAFA5OxwMpo8u_zXh2eEx8lAiRIwUiPE6pwJz4a69V0_oYIy-XxmQBQF7Nn70jFsfpHB-G88uNJkDayxLrpH3vEzn-xzWi0]--></g></svg>