<svg xmlns="http://www.w3.org/2000/svg" xmlns:xlink="http://www.w3.org/1999/xlink" contentStyleType="text/css" data-diagram-type="CLASS" height="530px" preserveAspectRatio="none" style="width:569px;height:530px;background:#FFFFFF;" version="1.1" viewBox="0 0 569 530" width="569px" zoomAndPan="magnify"><defs/><g><!--cluster domain1--><g class="cluster" data-entity="domain1" data-source-line="8" data-uid="ent0007" id="cluster_domain1"><path d="M8.5,6.602 L324.6388,6.602 A3.75,3.75 0 0 1 327.1388,9.102 L334.1388,31.6699 L558.5,31.6699 A2.5,2.5 0 0 1 561,34.1699 L561,521.122 A2.5,2.5 0 0 1 558.5,523.622 L8.5,523.622 A2.5,2.5 0 0 1 6,521.122 L6,9.102 A2.5,2.5 0 0 1 8.5,6.602" fill="none" style="stroke:#000000;stroke-width:1.5;"/><line style="stroke:#000000;stroke-width:1.5;" x1="6" x2="334.1388" y1="31.6699" y2="31.6699"/><text fill="#000000" font-family="sans-serif" font-size="14" font-weight="bold" lengthAdjust="spacing" textLength="315.1388" x="10" y="23.5679">com.github.raphaelbudde.jpa2puml.domain1</text></g><!--class AbstractEntity--><g class="entity" data-entity="AbstractEntity" data-source-line="8" data-uid="ent0002" id="entity_AbstractEntity"><rect fill="#F1F1F1" height="97.2038" rx="2.5" ry="2.5" style="stroke:#181818;stroke-width:0.5;" width="188.2453" x="21.88" y="44.602"/><ellipse cx="68.7868" cy="60.602" fill="#A9DCDF" rx="11" ry="11" style="stroke:#181818;stroke-width:1;"/><path d="M63.9587,66.352 L67.3025,54.1645 L70.4431,54.1645 L73.8181,66.352 L71.3493,66.352 L70.615,63.3364 L67.0993,63.3364 L66.3493,66.352 L63.9587,66.352 Z M68.365,58.3051 L67.615,61.3051 L70.1306,61.3051 L69.4118,58.3051 Q69.2712,57.727 69.1462,57.1801 Q69.0212,56.6176 68.8806,56.0395 Q68.7712,56.6176 68.6306,57.1801 Q68.49,57.727 68.365,58.3051 Z " fill="#000000"/><text fill="#000000" font-family="sans-serif" font-size="14" font-style="italic" lengthAdjust="spacing" textLength="85.9317" x="89.2868" y="66.034">AbstractEntity</text><line style="stroke:#181818;stroke-width:0.5;" x1="22.88" x2="209.1253" y1="76.602" y2="76.602"/><text fill="#000000" font-family="sans-serif" font-size="14" lengthAdjust="spacing" textLength="90.0757" x="27.88" y="95.5679">id: UUID &#171;PK&#187;</text><text fill="#000000" font-family="sans-serif" font-size="14" lengthAdjust="spacing" textLength="94.7656" x="27.88" y="114.6358">version: Long?</text><text fill="#000000" font-family="sans-serif" font-size="14" lengthAdjust="spacing" textLength="176.2453" x="27.88" y="133.7038">createdAt: ZonedDateTime</text></g><!--class Address--><g class="entity" data-entity="Address" data-source-line="14" data-uid="ent0008" id="entity_Address"><rect fill="#F1F1F1" height="116.2717" rx="2.5" ry="2.5" style="stroke:#181818;stroke-width:0.5;" width="99.7097" x="189.15" y="220.802"/><ellipse cx="210.6542" cy="236.802" fill="#ADD1B2" rx="11" ry="11" style="stroke:#181818;stroke-width:1;"/><path d="M207.0136,243.302 L207.0136,231.1614 L214.6699,231.1614 L214.6699,233.2864 L209.3886,233.2864 L209.3886,235.9426 L214.4042,235.9426 L214.4042,238.0676 L209.3886,238.0676 L209.3886,241.177 L214.6699,241.177 L214.6699,243.302 L207.0136,243.302 Z " fill="#000000"/><text fill="#000000" font-family="sans-serif" font-size="14" lengthAdjust="spacing" textLength="53.2558" x="226.0996" y="242.234">Address</text><line style="stroke:#181818;stroke-width:0.5;" x1="190.15" x2="287.8597" y1="252.802" y2="252.802"/><text fill="#000000" font-family="sans-serif" font-size="14" lengthAdjust="spacing" textLength="87.7097" x="195.15" y="271.7679">id: Long &#171;PK&#187;</text><text fill="#000000" font-family="sans-serif" font-size="14" lengthAdjust="spacing" textLength="84.2797" x="195.15" y="290.8358">name: String</text><text fill="#000000" font-family="sans-serif" font-size="14" lengthAdjust="spacing" textLength="85.1757" x="195.15" y="309.9038">street: String</text><text fill="#000000" font-family="sans-serif" font-size="14" lengthAdjust="spacing" textLength="69.3137" x="195.15" y="328.9717">city: String</text></g><!--class GridOperator--><g class="entity" data-entity="GridOperator" data-source-line="21" data-uid="ent0009" id="entity_GridOperator"><rect fill="#F1F1F1" height="72.4799" rx="2.5" ry="2.5" style="stroke:#181818;stroke-width:0.5;" width="120.5777" x="244.71" y="56.962"/><ellipse cx="259.71" cy="79.668" fill="#ADD1B2" rx="11" ry="11" style="stroke:#181818;stroke-width:1;"/><path d="M256.0694,86.168 L256.0694,74.0274 L263.7256,74.0274 L263.7256,76.1524 L258.4444,76.1524 L258.4444,78.8086 L263.46,78.8086 L263.46,80.9336 L258.4444,80.9336 L258.4444,84.043 L263.7256,84.043 L263.7256,86.168 L256.0694,86.168 Z " fill="#000000"/><text fill="#000000" font-family="sans-serif" font-size="12" font-style="italic" lengthAdjust="spacing" textLength="85.1046" x="275.4465" y="74.7901">&#171;AbstractEntity&#187;</text><text fill="#000000" font-family="sans-serif" font-size="14" lengthAdjust="spacing" textLength="88.5777" x="273.71" y="93.272">GridOperator</text><line style="stroke:#181818;stroke-width:0.5;" x1="245.71" x2="364.2877" y1="102.374" y2="102.374"/><text fill="#000000" font-family="sans-serif" font-size="14" lengthAdjust="spacing" textLength="107.7716" x="250.71" y="121.3399">mastrNr: String?</text></g><!--class LineElement--><g class="entity" data-entity="LineElement" data-source-line="25" data-uid="ent0010" id="entity_LineElement"><rect fill="#F1F1F1" height="91.5479" rx="2.5" ry="2.5" style="stroke:#181818;stroke-width:0.5;" width="176.1773" x="219.91" y="416.072"/><ellipse cx="263.1239" cy="438.778" fill="#ADD1B2" rx="11" ry="11" style="stroke:#181818;stroke-width:1;"/><path d="M259.4833,445.278 L259.4833,433.1374 L267.1396,433.1374 L267.1396,435.2624 L261.8583,435.2624 L261.8583,437.9186 L266.8739,437.9186 L266.8739,440.0436 L261.8583,440.0436 L261.8583,443.153 L267.1396,443.153 L267.1396,445.278 L259.4833,445.278 Z " fill="#000000"/><text fill="#000000" font-family="sans-serif" font-size="12" font-style="italic" lengthAdjust="spacing" textLength="85.1046" x="281.5813" y="433.9001">&#171;AbstractEntity&#187;</text><text fill="#000000" font-family="sans-serif" font-size="14" lengthAdjust="spacing" textLength="81.4797" x="283.3937" y="452.382">LineElement</text><line style="stroke:#181818;stroke-width:0.5;" x1="220.91" x2="395.0873" y1="461.484" y2="461.484"/><text fill="#000000" font-family="sans-serif" font-size="14" lengthAdjust="spacing" textLength="155.0774" x="225.91" y="480.4499">type: LineElementType?</text><text fill="#000000" font-family="sans-serif" font-size="14" lengthAdjust="spacing" textLength="164.1773" x="225.91" y="499.5179">typeB: LineElementType?</text></g><!--class Text--><g class="entity" data-entity="Text" data-source-line="30" data-uid="ent0011" id="entity_Text"><rect fill="#F1F1F1" height="78.1358" rx="2.5" ry="2.5" style="stroke:#181818;stroke-width:0.5;" width="132.5116" x="21.74" y="239.872"/><ellipse cx="69.6758" cy="255.872" fill="#ADD1B2" rx="11" ry="11" style="stroke:#181818;stroke-width:1;"/><path d="M66.0352,262.372 L66.0352,250.2314 L73.6915,250.2314 L73.6915,252.3564 L68.4102,252.3564 L68.4102,255.0126 L73.4258,255.0126 L73.4258,257.1376 L68.4102,257.1376 L68.4102,260.247 L73.6915,260.247 L73.6915,262.372 L66.0352,262.372 Z " fill="#000000"/><text fill="#000000" font-family="sans-serif" font-size="14" lengthAdjust="spacing" textLength="28.1399" x="90.1758" y="261.304">Text</text><line style="stroke:#181818;stroke-width:0.5;" x1="22.74" x2="153.2516" y1="271.872" y2="271.872"/><text fill="#000000" font-family="sans-serif" font-size="14" lengthAdjust="spacing" textLength="84.2797" x="27.74" y="290.8379">name: String</text><text fill="#000000" font-family="sans-serif" font-size="14" lengthAdjust="spacing" textLength="120.5116" x="27.74" y="309.9058">description: String</text></g><!--class Transformer--><g class="entity" data-entity="Transformer" data-source-line="35" data-uid="ent0012" id="entity_Transformer"><rect fill="#F1F1F1" height="45.412" rx="2.5" ry="2.5" style="stroke:#181818;stroke-width:0.5;" width="114.6137" x="323.69" y="256.232"/><ellipse cx="338.69" cy="278.938" fill="#ADD1B2" rx="11" ry="11" style="stroke:#181818;stroke-width:1;"/><path d="M335.0494,285.438 L335.0494,273.2974 L342.7056,273.2974 L342.7056,275.4224 L337.4244,275.4224 L337.4244,278.0786 L342.44,278.0786 L342.44,280.2036 L337.4244,280.2036 L337.4244,283.313 L342.7056,283.313 L342.7056,285.438 L335.0494,285.438 Z " fill="#000000"/><text fill="#000000" font-family="sans-serif" font-size="12" font-style="italic" lengthAdjust="spacing" textLength="85.1046" x="351.4446" y="274.0601">&#171;AbstractEntity&#187;</text><text fill="#000000" font-family="sans-serif" font-size="14" lengthAdjust="spacing" textLength="82.6137" x="352.69" y="292.542">Transformer</text></g><!--class LineElementType--><g class="entity" data-entity="LineElementType" data-source-line="39" data-uid="ent0013" id="entity_LineElementType"><rect fill="#F1F1F1" height="78.1358" rx="2.5" ry="2.5" style="stroke:#181818;stroke-width:0.5;" width="144.9095" x="400.55" y="54.132"/><ellipse cx="415.55" cy="70.132" fill="#EB937F" rx="11" ry="11" style="stroke:#181818;stroke-width:1;"/><path d="M411.9094,76.632 L411.9094,64.4914 L419.5656,64.4914 L419.5656,66.6164 L414.2844,66.6164 L414.2844,69.2726 L419.3,69.2726 L419.3,71.3976 L414.2844,71.3976 L414.2844,74.507 L419.5656,74.507 L419.5656,76.632 L411.9094,76.632 Z " fill="#000000"/><text fill="#000000" font-family="sans-serif" font-size="14" lengthAdjust="spacing" textLength="112.9095" x="429.55" y="75.564">LineElementType</text><line style="stroke:#181818;stroke-width:0.5;" x1="401.55" x2="544.4595" y1="86.132" y2="86.132"/><text fill="#000000" font-family="sans-serif" font-size="14" lengthAdjust="spacing" textLength="39.9698" x="406.55" y="105.0979">TYPE1</text><text fill="#000000" font-family="sans-serif" font-size="14" lengthAdjust="spacing" textLength="39.9698" x="406.55" y="124.1658">TYPE2</text></g><!--link AbstractEntity to Text--><g class="link" data-entity-1="AbstractEntity" data-entity-2="Text" data-source-line="44" data-uid="lnk14" id="link_AbstractEntity_Text"><path codeLine="44" d="M108.72,141.992 C104.08,172.402 99.0632,205.3304 94.7432,233.7004" fill="none" id="AbstractEntity-to-Text" style="stroke:#181818;stroke-width:1;"/><polygon fill="#181818" points="93.84,239.632,99.1493,231.3367,94.5927,234.689,91.2404,230.1324,93.84,239.632" style="stroke:#181818;stroke-width:1;"/><text fill="#000000" font-family="sans-serif" font-size="13" lengthAdjust="spacing" textLength="23.595" x="104.68" y="186.699">text</text><text fill="#000000" font-family="sans-serif" font-size="13" lengthAdjust="spacing" textLength="7.436" x="100.3004" y="163.6345">1</text><text fill="#000000" font-family="sans-serif" font-size="13" lengthAdjust="spacing" textLength="7.436" x="87.2964" y="228.0761">1</text></g><!--link GridOperator to Address--><g class="link" data-entity-1="GridOperator" data-entity-2="Address" data-source-line="45" data-uid="lnk15" id="link_GridOperator_Address"><path codeLine="45" d="M255.25,129.832 C242.67,141.622 230.8,155.862 224,171.802 C217.53,186.952 216.413,198.3825 218.923,214.6125" fill="none" id="GridOperator-to-Address" style="stroke:#181818;stroke-width:1;"/><polygon fill="#181818" points="219.84,220.542,222.4175,211.0364,219.0758,215.6007,214.5115,212.2591,219.84,220.542" style="stroke:#181818;stroke-width:1;"/><text fill="#000000" font-family="sans-serif" font-size="13" lengthAdjust="spacing" textLength="48.438" x="225" y="186.699">address</text><text fill="#000000" font-family="sans-serif" font-size="13" lengthAdjust="spacing" textLength="21.84" x="224.3409" y="151.2621">0..1</text><text fill="#000000" font-family="sans-serif" font-size="13" lengthAdjust="spacing" textLength="21.84" x="195.093" y="208.9132">0..1</text></g><!--link GridOperator to Transformer--><g class="link" data-entity-1="GridOperator" data-entity-2="Transformer" data-source-line="46" data-uid="lnk16" id="link_GridOperator_Transformer"><path codeLine="46" d="M303.63,129.712 C304.05,148.462 306.43,171.522 314,190.802 C323.77,215.672 338.7929,235.0187 354.1129,251.4087" fill="none" id="GridOperator-to-Transformer" style="stroke:#181818;stroke-width:1;"/><polygon fill="#181818" points="358.21,255.792,354.9865,246.4856,354.7957,252.1392,349.1421,251.9485,358.21,255.792" style="stroke:#181818;stroke-width:1;"/><text fill="#000000" font-family="sans-serif" font-size="13" lengthAdjust="spacing" textLength="80.4051" x="315" y="186.699">transformers</text><text fill="#000000" font-family="sans-serif" font-size="13" lengthAdjust="spacing" textLength="21.567" x="280.6388" y="151.4058">1..*</text><text fill="#000000" font-family="sans-serif" font-size="13" lengthAdjust="spacing" textLength="21.567" x="328.3404" y="244.279">0..*</text></g><!--link Transformer to GridOperator--><g class="link" data-entity-1="Transformer" data-entity-2="GridOperator" data-source-line="48" data-uid="lnk18" id="link_Transformer_GridOperator"><path codeLine="48" d="M392.43,255.772 C402.21,233.562 412.84,198.862 400,171.802 C392.24,155.452 383.8009,145.2048 369.7909,133.7248" fill="none" id="Transformer-to-GridOperator" style="stroke:#181818;stroke-width:1;"/><polygon fill="#181818" points="365.15,129.922,369.5762,138.7202,369.0174,133.091,374.6466,132.5323,365.15,129.922" style="stroke:#181818;stroke-width:1;"/><text fill="#000000" font-family="sans-serif" font-size="13" lengthAdjust="spacing" textLength="80.7821" x="405.97" y="186.699">gridOperator</text><text fill="#000000" font-family="sans-serif" font-size="13" lengthAdjust="spacing" textLength="21.567" x="371.757" y="244.2536">0..*</text><text fill="#000000" font-family="sans-serif" font-size="13" lengthAdjust="spacing" textLength="7.436" x="367.569" y="151.367">1</text></g><!--link LineElement to LineElement--><g class="link" data-entity-1="LineElement" data-entity-2="LineElement" data-source-line="47" data-uid="lnk17" id="link_LineElement_LineElement"><path codeLine="47" d="M396.52,446.252 C416.48,447.652 431.09,452.852 431.09,461.852 C431.09,470.842 422.4653,475.6222 402.5053,477.0222" fill="none" id="LineElement-to-LineElement" style="stroke:#181818;stroke-width:1;"/><polygon fill="#181818" points="396.52,477.442,405.7778,480.8025,401.5077,477.0921,405.2181,472.8221,396.52,477.442" style="stroke:#181818;stroke-width:1;"/><text fill="#000000" font-family="sans-serif" font-size="13" lengthAdjust="spacing" textLength="119.0281" x="437.09" y="467.249">relatedLineElement</text><text fill="#000000" font-family="sans-serif" font-size="13" lengthAdjust="spacing" textLength="21.567" x="404.123" y="441.3313">0..*</text><text fill="#000000" font-family="sans-serif" font-size="13" lengthAdjust="spacing" textLength="21.84" x="404.1335" y="474.9093">0..1</text></g><!--link Transformer to LineElement--><g class="link" data-entity-1="Transformer" data-entity-2="LineElement" data-source-line="49" data-uid="lnk19" id="link_Transformer_LineElement"><path codeLine="49" d="M372.05,302.122 C360.7,330.242 343.1153,373.8279 328.5153,410.0079" fill="none" id="Transformer-to-LineElement" style="stroke:#181818;stroke-width:1;"/><polygon fill="#181818" points="326.27,415.572,333.3473,408.7228,328.1411,410.9353,325.9286,405.729,326.27,415.572" style="stroke:#181818;stroke-width:1;"/><text fill="#000000" font-family="sans-serif" font-size="13" lengthAdjust="spacing" textLength="78.4291" x="345.5" y="381.969">lineElements</text><text fill="#000000" font-family="sans-serif" font-size="13" lengthAdjust="spacing" textLength="7.436" x="362.2221" y="323.4275">1</text><text fill="#000000" font-family="sans-serif" font-size="13" lengthAdjust="spacing" textLength="21.567" x="306.5034" y="404.1358">0..*</text></g><!--SRC=[dLHHQzim47xNhxZbPL28gFDeYaD6GnTMsa3SX-rDiIwsLaiMahojZFttdUsaTiOAZPwa-oJTzzrtaZx27Hfq8g24dofKyDsAXMrrFKzumXVptSDgk_lyc3FsmJfHQW6jnuq9w3HAHSUsedWM9NeuYDeZgvH4q1YgHleXG6t32nmKreJuPsMiS493wPhMRao5JWLX2eG5OsBlWnD5WABHl2GrxPuxOIk1zRwL4lb979UD5ieaV7KyiJP14Sjl1g1a2azFcrkukTb-oJ92Vg3pgZ4ft3UcN19GEEmANeKKlZK6vIr5kTB8_Z26GwRtAv3IeVUlr1t7I6s4nXHsmIbJKaXY4SC4A8ZhDOnWltDAFjgkVuqZrdCxignNfGM13-v4iupXkLS6rpLgElSMJNYnLEfaOqx0yhZmwJyh4J9o_1LwidzybUWBfspeknplPkw4yOU6hlORPWv9MnrbN5TrBpx_kbqdnt7HfOozxhDa1lDvre-NUPX2e875tRFPDUSdvc5wyMj9GGopM0a9vrUZXAjPN9F9XZ6wGClqEHpvOzoOfad1OTtzIXEGHHKr5NI9cZE3K_gWnp1II1BNeNDRwZ7ox2y0]--></g></svg>